HIERARCHY
ROOT pelvis
{
  OFFSET 0 100 0
  CHANNELS 6 Xposition Yposition Zposition Zrotation Xrotation Yrotation
  JOINT pelvis_right_femur
  {
    OFFSET -10.78128 -3.44521 -0.5502486
    CHANNELS 3 Zrotation Xrotation Yrotation
    JOINT right_femur_tibia
    {
      OFFSET -0.8047443 -44.0398 -0.1307829
      CHANNELS 3 Zrotation Xrotation Yrotation
      JOINT right_tibia_foot
      {
        OFFSET 3.006224 -47.83518 -5
        CHANNELS 3 Zrotation Xrotation Yrotation
        End Site
        {
          OFFSET 0 -5 15
        }
      }
    }
  }
  JOINT pelvis_left_femur
  {
    OFFSET 10.78128 -3.44521 -0.5502486
    CHANNELS 3 Zrotation Xrotation Yrotation
    JOINT left_femur_tibia
    {
      OFFSET 0.8047443 -44.0398 -0.1307829
      CHANNELS 3 Zrotation Xrotation Yrotation
      JOINT left_tibia_foot
      {
        OFFSET -4.370144 -48.10324 -4.275266
        CHANNELS 3 Zrotation Xrotation Yrotation
        End Site
        {
          OFFSET 0 -5 15
        }
      }
    }
  }
  JOINT pelvis_spine1
  {
    OFFSET 0 6.468898 -3.129235
    CHANNELS 3 Zrotation Xrotation Yrotation
    JOINT spine1
    {
      OFFSET 0 23.15396 4.99043
      CHANNELS 3 Zrotation Xrotation Yrotation
      JOINT spine2
      {
        OFFSET 0 20.79997 -5.064912
        CHANNELS 3 Zrotation Xrotation Yrotation
        JOINT neck
        {
          OFFSET 0 14.38658 9.616178
          CHANNELS 3 Zrotation Xrotation Yrotation
          End Site
          {
            OFFSET 0 20 0
          }
        }
      }
      JOINT right_manubrium
      {
        OFFSET -5.722621 16.35077 3.967754
        CHANNELS 3 Zrotation Xrotation Yrotation
        JOINT right_clavicle
        {
          OFFSET -13.16364 1.694482 -4.693211
          CHANNELS 3 Zrotation Xrotation Yrotation
          JOINT right_humerus
          {
            OFFSET -28.5034 -0.3100689 -2.792744
            CHANNELS 3 Zrotation Xrotation Yrotation
            JOINT right_radius
            {
              OFFSET -25.15693 0.02248979 -1.271978
              CHANNELS 3 Zrotation Xrotation Yrotation
              End Site
              {
                OFFSET -15 0 0
              }
            }
          }
        }
      }
      JOINT left_manubrium
      {
        OFFSET 5.722621 16.35077 3.967754
        CHANNELS 3 Zrotation Xrotation Yrotation
        JOINT left_clavicle
        {
          OFFSET 13.16364 1.694482 -4.693211
          CHANNELS 3 Zrotation Xrotation Yrotation
          JOINT left_humerus
          {
            OFFSET 29.39168 -1.063119 -2.237045
            CHANNELS 3 Zrotation Xrotation Yrotation
            JOINT left_radius
            {
              OFFSET 24.59957 -0.9528479 0.9047498
              CHANNELS 3 Zrotation Xrotation Yrotation
              End Site
              {
                OFFSET 15 -0 -0
              }
            }
          }
        }
      }
    }
  }
}
MOTION
Frames: 21
Frame Time: 0.0416666666667
0 103.5113 0 1.615188 -1.075411 0.030971 2.807574 -15.97627 9.88068 -0 39.59605 -0 -5.231912 -17.65448 -4.124392 -7.728607 10.61195 -23.6665 -0 4.198604 -0 10.98292 -16.1351 28.14861 -4.70343 -3.801484 4.557334 2.788835 9.43301 -7.788127 1.161939 22.40768 6.799426 2.881119 -23.93016 9.285649 6.751269 -19.72206 11.71857 85.40152 36.77634 -18.92569 -0 0 15.98949 -6.865082 7.899002 5.069796 5.032694 -18.76402 -1.843955 -93.36785 27.58403 21.52636 0 0 -16.08967 6.532335 15.8894 6.048769
0.3241995 104.3085 1.379592 1.395042 -0.9985442 0.06673025 3.036327 -16.7739 9.550046 -0 39.24664 -0 -5.510678 -16.37568 -3.921401 -7.517784 10.77995 -23.37724 -0 4.50543 -0 10.5983 -16.40315 27.77195 -4.502815 -3.633699 4.415192 2.731256 9.504995 -7.758893 1.220025 22.34774 6.872111 2.949514 -24.09696 9.387177 6.61722 -19.64119 11.6919 85.60498 36.64461 -18.94356 -0 0 15.63696 -7.222746 8.16216 5.169996 5.149963 -18.99164 -1.860447 -93.15443 27.36535 21.27188 0 0 -16.3436 6.915855 16.04583 5.749204
0.6145607 105.069 3.10337 0.8641292 -0.206707 0.1454614 4.11211 -19.8743 9.321514 -0 36.40911 -0 -5.480641 -15.08638 -3.697087 -7.118256 11.32719 -22.79409 -0 5.358071 -0 9.754234 -17.43217 26.93069 -4.003251 -3.26206 4.350703 2.759749 9.348221 -7.78376 1.377103 21.9298 6.948608 3.079635 -24.55396 9.599023 6.446317 -19.36763 11.54991 85.76291 36.46569 -19.25069 -0 0 15.41083 -7.060645 8.458171 4.816065 5.726995 -19.37091 -1.564606 -92.88146 26.93177 20.75442 0 0 -17.31621 7.791289 15.9934 5.036695
0.8788357 105.7619 5.093344 0.4631783 0.4679673 0.275368 4.97268 -22.28738 9.242075 -0 33.86343 -0 -5.39098 -14.32287 -3.574063 -6.824167 11.7764 -22.36043 -0 6.084367 -0 8.895946 -18.31979 26.17288 -3.608885 -2.986781 4.340634 2.789375 9.163696 -7.818767 1.492013 21.58873 7.005886 3.19317 -24.87943 9.735848 6.321799 -19.13882 11.41692 85.87874 36.3179 -19.59372 -0 0 15.31097 -6.821783 8.62405 4.477666 6.19015 -19.65212 -1.311989 -92.7862 26.84791 20.4686 0 0 -18.18553 8.139378 15.92536 4.882729
1.097235 106.3417 7.293532 0.1560701 1.336576 0.4251673 5.986285 -24.65486 9.582217 -0 30.30832 -0 -4.80363 -15.10279 -3.862814 -6.581923 12.4723 -22.29465 -0 7.050191 -0 6.589005 -19.94058 24.95845 -3.150537 -2.732221 4.522819 2.735325 8.496828 -7.847133 1.604093 21.24234 7.071144 3.423232 -24.85722 9.733259 6.364597 -18.71421 11.08624 85.80899 36.29526 -20.40279 -0 0 15.81997 -5.845556 8.516746 3.516488 6.785421 -19.70916 -0.9445031 -93.59295 28.69076 20.99915 0 0 -19.50929 6.222432 16.06776 7.463951
1.261192 106.8006 9.6853 -0.06842644 2.000086 0.6050197 6.744455 -26.43398 9.706414 -0 27.03722 -0 -4.241621 -15.92788 -4.208577 -6.313354 13.2362 -22.36408 -0 8.12499 -0 2.970379 -21.83039 23.1319 -2.630481 -2.441997 4.694781 2.480876 7.656139 -7.796075 1.67768 21.04204 7.239034 3.827508 -24.43582 9.598498 6.49855 -18.14473 10.65184 85.72775 36.37834 -21.37361 -0 0 16.48201 -5.044271 8.448106 2.406146 7.387252 -19.74435 -0.7277968 -94.97734 31.71246 22.08118 0 0 -20.98202 2.76672 16.42558 11.88075
1.366187 107.1522 12.29508 -0.2564913 2.409561 0.8383452 7.148466 -27.75386 9.261083 -0 24.11516 -0 -3.863144 -16.13176 -4.435564 -5.96548 14.06363 -22.39211 -0 9.196335 -0 -1.970329 -23.80941 20.48621 -2.015179 -2.081212 4.771453 2.002825 6.761701 -7.672126 1.687218 20.99932 7.561673 4.433935 -23.65218 9.332968 6.685495 -17.44783 10.15811 85.74407 36.57862 -22.45819 -0 0 17.07666 -4.79008 8.613624 1.328133 8.004491 -19.91688 -0.7474003 -96.83196 35.51456 23.60412 0 0 -22.70003 -1.86724 16.81808 17.69816
1.420745 107.4749 15.18412 -0.5295095 2.508745 1.170078 7.181013 -28.67158 8.137071 -0 22.35229 -0 -4.090598 -14.49459 -4.327484 -5.495466 14.80619 -22.07676 -0 10.1153 -0 -6.86157 -25.23335 17.56608 -1.390781 -1.685896 4.578409 1.460653 6.226566 -7.578092 1.625362 21.08195 8.002126 5.087017 -22.96109 9.066057 6.784365 -16.82832 9.79184 86.1111 36.84339 -23.4104 -0 0 16.97447 -5.479851 9.209982 0.8227633 8.444814 -20.43054 -1.019975 -98.35754 38.73858 24.89977 0 0 -24.37699 -5.973926 17.14989 22.90007
1.454667 107.9469 18.48152 -1.100936 2.464444 1.665978 7.216756 -29.65142 6.842433 -0 22.55977 -0 -5.366015 -9.921784 -3.737896 -4.887226 15.20975 -21.02663 -0 11.17814 -0 -9.313961 -25.54187 15.57968 -0.8932332 -1.306363 4.002423 1.199229 6.533765 -7.69051 1.546518 21.08893 8.394864 5.501253 -23.15214 9.026913 6.611821 -16.55722 9.776539 87.03097 37.01866 -23.91924 -0 0 15.53463 -7.029019 10.11808 1.40932 8.484429 -21.39408 -1.346372 -98.14269 39.46474 24.76648 0 0 -25.36453 -6.874388 17.586 24.35518
1.557467 108.7208 22.37559 -2.057972 2.265666 2.368202 7.535002 -30.90303 5.911232 -0 24.84305 -0 -7.886506 -2.059271 -2.442885 -4.278903 14.72913 -18.55392 -0 12.64461 -0 -6.87068 -24.27546 15.58787 -0.6741024 -0.9004702 3.100674 1.626775 8.159534 -8.175341 1.464756 20.76839 8.467036 5.30941 -24.89181 9.304528 5.727986 -17.04817 10.35575 88.58325 36.06851 -23.56412 -0 0 12.62438 -9.232134 10.57903 3.623233 7.912604 -22.78442 -1.667103 -95.0502 35.32385 22.24512 0 0 -24.74847 -1.755188 17.40543 18.65975
1.881043 109.2832 26.85808 -2.447354 0.6160385 3.03286 6.672486 -30.54754 4.093347 -0 25.14912 -0 -9.989992 4.713095 -1.012543 -4.272749 13.17738 -14.04228 -0 12.46702 -0 -0.4470653 -21.60763 16.50584 -0.934866 -0.2454391 2.345304 2.679015 10.67951 -8.836947 1.19552 20.51362 7.868882 4.048726 -26.80008 9.269672 2.998177 -18.57102 11.35563 90.68069 30.6135 -22.09283 -0 0 9.872471 -12.3357 8.953143 7.528241 6.741987 -24.10491 -2.866965 -90.06409 26.17893 17.57714 0 0 -22.86777 7.235952 13.39565 7.380775
2.164095 108.1878 31.94126 0.01053293 -4.477127 3.432794 1.948878 -26.14724 -0.9489448 -0 14.77748 -0 -7.46696 -0.17829 -3.23728 -5.405711 15.64446 -9.896397 -0 8.781245 -0 -0.006919181 -21.50195 14.88213 -1.86954 0.3116824 2.043563 2.443079 10.28803 -8.232687 1.407203 22.44642 6.251774 1.811316 -23.25871 8.445985 -2.049116 -18.12486 10.51838 93.64882 19.74991 -21.236 -0 0 8.045662 -16.23981 6.218315 9.687509 6.198662 -24.06055 -5.295971 -84.01495 22.18331 8.05184 0 0 -25.60981 7.828924 9.459432 3.748209
2.094118 107.6221 38.7331 0.9773746 -5.220231 4.046179 2.224713 -25.14806 0.1152415 -0 9.414243 -0 -7.511286 -2.963917 -6.673012 -5.150885 21.92031 -9.502599 -0 16.33883 -0 -2.807587 -21.91775 14.43631 -2.041937 -1.150836 1.510447 1.940006 7.926206 -7.487978 2.876658 23.74287 4.692007 0.5579071 -21.35353 9.078872 -3.740506 -14.92542 8.751704 95.86755 17.86837 -23.01968 -0 0 2.286968 -15.12498 7.011052 7.457562 6.227053 -23.50428 -3.976259 -80.63827 23.94625 1.313863 0 0 -30.05999 6.86842 11.99441 4.451587
1.970524 108.6786 45.6954 -1.136524 -2.993864 4.322986 6.396192 -24.93873 4.064268 -0 15.93846 -0 -10.09245 -2.788732 -6.635229 -3.651142 20.48969 -11.00738 -0 28.58667 -0 -3.032497 -17.69717 14.58366 -0.2519304 -1.87467 1.333308 2.211966 7.990855 -7.593413 3.11195 23.10307 4.970773 0.6487082 -23.50246 10.06921 -2.204507 -14.61836 8.832579 95.41536 22.1301 -23.41058 -0 0 1.271313 -12.49609 8.602667 6.292249 5.236263 -22.51479 -2.392123 -83.33948 24.71679 5.866795 0 0 -26.92976 8.332258 14.12718 4.298202
1.848954 110.3354 52.24726 -2.127396 -3.148128 4.300443 7.821571 -21.91843 4.972966 -0 19.73321 -0 -11.27445 -5.142905 -6.388006 -2.846347 16.48901 -11.96151 -0 40.03148 -0 -4.389395 -13.65961 14.17611 1.018346 -1.445674 1.532241 1.922417 8.28407 -7.288258 3.148983 23.32242 5.293373 0.8696738 -23.56154 10.48566 -1.081189 -14.52672 9.014182 94.58199 25.13977 -22.59513 -0 0 2.202558 -12.41638 10.36792 6.115353 4.343702 -21.46427 -2.205384 -85.43677 26.02985 9.196005 0 0 -23.67803 7.70605 15.8697 5.8651
1.767597 112.4201 58.33314 -2.357577 -3.812212 3.969662 7.988817 -17.63939 4.602319 -0 20.44712 -0 -11.70873 -7.162757 -5.947081 -2.521167 10.94103 -12.29527 -0 49.43595 -0 -5.46076 -10.66051 13.75004 1.765981 -0.9136118 2.24096 1.370437 8.783878 -6.721411 3.22531 23.64664 5.484167 0.9742749 -23.23019 10.73047 -0.5925475 -14.97865 9.326356 93.89194 27.11159 -21.45828 -0 0 3.708667 -13.88962 12.56746 6.807981 3.637441 -20.72157 -2.401569 -87.22352 27.12858 12.47146 0 0 -21.82488 6.152944 17.44513 8.37058
1.718399 114.612 64.0019 -2.135734 -4.777492 3.453842 7.591041 -12.67774 3.697055 -0 19.30935 -0 -11.5979 -8.396743 -5.512124 -2.332994 4.652668 -12.09913 -0 55.81049 -0 -5.989476 -8.686439 13.47212 2.154204 -0.4812166 3.242796 0.6525088 9.47092 -6.006683 3.407356 23.91232 5.447484 0.8127163 -22.81805 10.92661 -0.8181714 -16.04781 9.71138 93.51732 27.87547 -20.06661 -0 0 5.595941 -16.53105 15.13257 8.32614 3.036753 -20.25607 -2.798661 -88.70733 27.83202 15.83508 0 0 -21.20085 4.051182 18.85303 11.49733
1.703858 116.6619 69.34534 -1.702127 -5.834713 2.882416 7.00659 -7.436046 2.742494 -0 17.26046 -0 -11.06165 -9.122072 -5.143865 -2.041279 -1.705281 -11.47201 -0 58.56657 -0 -6.048733 -7.465235 13.33393 2.255451 -0.1941745 4.335266 -0.06635156 10.23349 -5.290489 3.615386 24.01844 5.190592 0.4078868 -22.41932 11.01282 -1.465263 -17.61832 10.11183 93.29438 27.72306 -18.45417 -0 0 7.810463 -19.65751 17.65708 10.44765 2.504402 -19.9672 -3.229249 -89.9364 28.15325 19.24444 0 0 -21.26165 1.735812 19.81503 14.82099
1.743672 118.3812 74.46121 -1.185541 -6.802544 2.359751 6.365406 -2.18388 1.942779 -0 14.9218 -0 -10.29854 -9.829659 -4.81603 -1.548172 -7.645921 -10.55533 -0 57.53838 -0 -5.790109 -6.839978 13.40319 2.068003 -0.009367003 5.339598 -0.6508945 10.86309 -4.642655 3.76235 24.00544 4.790307 -0.1206788 -22.03449 10.93497 -2.171707 -19.39959 10.44281 92.93383 27.17449 -16.57926 -0 0 10.13393 -22.54487 19.68098 12.76274 2.070767 -19.72232 -3.510958 -90.94678 28.1994 22.40457 0 0 -21.36242 -0.3511676 20.24555 17.69976
1.861078 119.6262 79.42049 -0.6627309 -7.575065 1.942849 5.720075 2.947795 1.281664 -0 12.55688 -0 -9.558082 -10.92403 -4.472216 -0.8291816 -12.95714 -9.481356 -0 52.96781 -0 -5.299271 -6.717639 13.85736 1.600426 0.1529853 6.107154 -1.029719 11.18184 -4.082944 3.788709 23.98917 4.358712 -0.6214287 -21.62959 10.6855 -2.669353 -21.08688 10.64661 92.17359 26.78667 -14.35707 -0 0 12.28363 -24.71982 20.95114 14.85811 1.805901 -19.42386 -3.532385 -91.76192 28.02133 24.96328 0 0 -20.90454 -1.770258 20.34152 19.46477
2.075108 120.2958 84.26174 -0.2503706 -8.059638 1.628059 5.171889 7.787087 0.6434026 -0 10.24905 -0 -9.033337 -12.59269 -4.05847 0.1253063 -17.51886 -8.361069 -0 45.14953 -0 -4.593787 -6.935121 14.80588 0.9700301 0.3183644 6.525767 -1.186282 11.13552 -3.640378 3.660265 24.03545 4.007141 -0.9976649 -21.21077 10.3096 -2.87019 -22.52928 10.70978 90.91116 26.88988 -11.76892 -0 0 14.1302 -26.0885 21.46691 16.56005 1.752288 -19.04307 -3.290486 -92.41983 27.61833 26.79012 0 0 -19.60048 -2.340547 20.36779 19.85007
